<svg xmlns="http://www.w3.org/2000/svg" xml:space="preserve" width="2048" height="2048" style="shape-rendering:geometricPrecision;text-rendering:geometricPrecision;image-rendering:optimizeQuality;fill-rule:evenodd;clip-rule:evenodd"><defs><clipPath id="id0"><path d="M1024-.001c565.541 0 1024 458.46 1024 1024s-458.461 1024-1024 1024c-565.541 0-1024-458.461-1024-1024 0-565.541 458.461-1024 1024-1024z"/></clipPath><style>.fil2{fill:none}.fil17{fill:#212121}.fil3{fill:#333}.fil4{fill:#424242}.fil14{fill:#999}.fil7{fill:#ccc}.fil18{fill:#e6e6e6}.fil24{fill:#fffffe}.fil10,.fil12,.fil9{fill:#1a1a1a;fill-rule:nonzero}.fil10,.fil12{fill:#212121}.fil12{fill:#424242}.fil15,.fil19,.fil8{fill:#b71c1c;fill-rule:nonzero}.fil15,.fil8{fill:#ccc}.fil15{fill:#e6e6e6}</style></defs><g id="Layer_x0020_1"><path d="M1024-.001c565.541 0 1024 458.46 1024 1024s-458.461 1024-1024 1024c-565.541 0-1024-458.461-1024-1024 0-565.541 458.461-1024 1024-1024z" style="fill:#009688"/><g style="clip-path:url(#id0)"><g id="_452519912"><path id="_4525184241" d="m1138.22 666.491-1.324.588-1.307.603-1.293.613-1.273.622-1.254.63a141.153 141.153 0 0 0-4.649 2.473 156.726 156.726 0 0 0-4.574 2.635 177.145 177.145 0 0 0-4.502 2.781 192.92 192.92 0 0 0-4.43 2.91 230.707 230.707 0 0 0-6.51 4.564 253.887 253.887 0 0 0-4.253 3.15l-2.101 1.6-2.084 1.616-1.75 1.378-3.854-3.856a3.847 3.847 0 0 0-2.642-1.326 3.906 3.906 0 0 0-2.17.476 3.88 3.88 0 0 0-1.178 1.015 3.784 3.784 0 0 0-.665 1.344 3.86 3.86 0 0 0-.11 1.475 3.921 3.921 0 0 0 .46 1.427c.124.224.274.438.448.64l2.512 2.912-38.74 33.404a5.59 5.59 0 0 0-1.46-.36 5.692 5.692 0 0 0-2.24.205 5.516 5.516 0 0 0-2.035 1.117 5.605 5.605 0 0 0-1.36 1.757 5.689 5.689 0 0 0-.542 3.154 5.572 5.572 0 0 0 1.317 2.999l9.753 11.31c.183.211.378.406.584.583l45.82 45.821h-3.037a1.532 1.532 0 0 0-.873.268 1.633 1.633 0 0 0-.423.423 1.485 1.485 0 0 0-.236.559 1.524 1.524 0 0 0-.032.314v.358h-5.667a2.942 2.942 0 0 0-1.159.235 3.048 3.048 0 0 0-1.312 1.083c-.107.158-.2.328-.276.507a2.942 2.942 0 0 0-.235 1.157v5.143l-1.995.053-1.996.067-1.999.084-2 .098-2.001.114-2.005.128-2.005.144-2.008.162-2.01.176-2.013.194-2.016.209-2.017.227-2.022.243-2.024.261-2.028.278-2.03.295-2.034.312-2.037.33-2.041.35c-.682.12-1.363.24-2.045.366l-2.049.386-2.053.404-2.057.423c-.686.144-1.374.29-2.061.442l-2.066.46-2.07.481-2.074.5-2.08.52-2.085.54-2.09.56c-.696.188-1.395.382-2.094.579l-2.1.601a87.066 87.066 0 0 0-6.872 2.307 80.225 80.225 0 0 0-6.328 2.741 75.907 75.907 0 0 0-8.543 4.852 73.317 73.317 0 0 0-5.112 3.682 76.366 76.366 0 0 0-4.683 3.998 78.756 78.756 0 0 0-2.191 2.108 78.928 78.928 0 0 0-2.097 2.174 88.098 88.098 0 0 0-5.692 6.8l-.066.086-.07.096a96.727 96.727 0 0 0-1.687 2.305 104.404 104.404 0 0 0-3.295 4.937 120.433 120.433 0 0 0-3.03 5.09 138.064 138.064 0 0 0-2.798 5.206c-.449.875-.89 1.756-1.323 2.639a195.044 195.044 0 0 0-2.428 5.14L763.718 668.52a55.43 55.43 0 0 0-1.21-1.206l-.023-.024-.046-.042a54.122 54.122 0 0 0-1.144-1.073l-.072-.067-.112-.098a51.043 51.043 0 0 0-1.112-.978l-.068-.059-.088-.072a52.202 52.202 0 0 0-1.166-.958l-.069-.057-.065-.05a48.3 48.3 0 0 0-1.18-.909l-.107-.081-.076-.055c-.42-.31-.844-.614-1.273-.911l-.036-.026-.02-.014a52.677 52.677 0 0 0-1.326-.884l-.072-.048-.045-.029a50.074 50.074 0 0 0-1.359-.842l-.046-.027-.012-.007a50.22 50.22 0 0 0-1.429-.82l-.044-.025-.074-.04a48.836 48.836 0 0 0-1.349-.714l-.094-.05-.134-.065c-.436-.22-.876-.435-1.32-.644l-.1-.048-.106-.047a56.9 56.9 0 0 0-1.42-.633l-.065-.03-.052-.021a52.52 52.52 0 0 0-1.54-.628l-.034-.015-.022-.008a53.23 53.23 0 0 0-1.544-.574l-.097-.035-.048-.017a57.628 57.628 0 0 0-3.385-1.075l-.007-.002-.017-.005a63.755 63.755 0 0 0-1.669-.449l-.093-.024-.129-.031a61.677 61.677 0 0 0-1.64-.388l-.051-.011-.062-.013a63.867 63.867 0 0 0-1.729-.358l-.068-.014-.08-.015a73.222 73.222 0 0 0-1.709-.304l-.112-.02-.093-.015a72.19 72.19 0 0 0-1.838-.276l-.018-.002a81.66 81.66 0 0 0-1.944-.241l-.035-.005-.064-.007a85.871 85.871 0 0 0-3.954-.341l-.084-.006-.143-.007c-.619-.038-1.245-.07-1.876-.097l-.099-.005-.125-.003a95.504 95.504 0 0 0-1.865-.055l-.174-.005h-.166c-.627-.011-1.26-.016-1.897-.015l-.145-.001-.131.001c-.691.002-1.388.013-2.092.028h-.033l-.019.002c-.691.015-1.388.037-2.093.066l-.191.006-.116.006c-.737.03-1.483.068-2.236.114l-2.53.142-2.591.124-2.648.109-2.702.09-2.756.077-2.805.062-2.852.047-2.898.034-2.94.02-2.98.009-3.016-.005-3.052-.016-3.084-.026-3.113-.036-3.14-.046-3.165-.055-1.59-.031-1.597-.032-3.206-.072-3.223-.08-3.24-.086-3.248-.092-3.259-.097-3.267-.102-1.635-.054-1.634-.054h-.001l-1.636-.055-1.636-.056-3.272-.114-3.267-.117-3.262-.12-3.254-.121-3.243-.122-3.23-.122-3.213-.123-4.115-.155-4.082-.155-4.046-.15-4.007-.144-3.962-.138-3.916-.13-3.864-.12-3.808-.11-3.75-.098-3.686-.083-3.62-.068-3.55-.052-3.476-.033-3.396-.014a407.143 407.143 0 0 0-12.729.165 273.41 273.41 0 0 0-5.796.235 192.464 192.464 0 0 0-5.376.353c-.86.07-1.699.144-2.52.224-.821.08-1.623.165-2.405.257a97.42 97.42 0 0 0-4.445.622c-.7.115-1.376.237-2.031.366-.656.128-1.29.263-1.9.405-.611.142-1.2.29-1.765.445a34.9 34.9 0 0 0-1.626.488c-.517.17-1.012.347-1.482.531-.469.185-.914.376-1.334.576a44.085 44.085 0 0 0-6.19 3.593 45.648 45.648 0 0 0-2.819 2.123c-.91.74-1.79 1.514-2.64 2.316a51.73 51.73 0 0 0-2.472 2.491 56.426 56.426 0 0 0-2.304 2.647 60.502 60.502 0 0 0-2.145 2.784 65.993 65.993 0 0 0-1.99 2.903 72.193 72.193 0 0 0-1.842 3.004 77.531 77.531 0 0 0-1.7 3.085 85.632 85.632 0 0 0-1.563 3.147 94.584 94.584 0 0 0-2.736 6.411c-.415 1.075-.81 2.154-1.186 3.227a117.843 117.843 0 0 0-2.036 6.4 131.179 131.179 0 0 0-1.626 6.207 153.095 153.095 0 0 0-1.26 5.865 148.473 148.473 0 0 0-.94 5.377 159.793 159.793 0 0 0-.667 4.736 136.432 136.432 0 0 0-.44 3.951l-.15 1.633-.108 1.381-.076 1.11-.046.82-.025.513-.007.185-.09 1.238v2.528l-.004 2.51-.006 2.494-.008 2.475-.011 2.458-.012 2.442-.015 2.424-.017 2.408-.019 2.389-.021 2.373-.022 2.356-.025 2.34-.026 2.323-.029 2.307-.03 2.289-.03 2.273-.034 2.256-.034 2.24-.037 2.225-.038 2.207-.039 2.192-.04 2.176-.042 2.16-.043 2.143-.045 2.127-.045 2.112-.046 2.096-.048 2.08-.049 2.065-.05 2.049-.05 2.034-.05 2.018h-1.39a6.05 6.05 0 0 0-2.374.482l-.004.001-.005.003a6.217 6.217 0 0 0-1.936 1.307l-.007.006-.006.007a6.104 6.104 0 0 0-1.31 1.94 6.042 6.042 0 0 0-.483 2.378 6.05 6.05 0 0 0 .483 2.378c.31.732.76 1.392 1.316 1.948l5.274 5.273-.267 8.726-.006.19-.016.453-.36 10.922v.003l-.012.358-.114 3.36-.125 3.65-.123 3.583-.018.507-.104 3.01-.233 6.832-.02.636-.3 9.127-.023.75-.006.209c-.095 3.077-.183 6.065-.261 8.96l-.004.119-.003.14a1344.07 1344.07 0 0 0-.196 8.333l-.006.245-.004.258c-.052 2.65-.09 5.216-.117 7.702l-.003.201-.001.196a561.857 561.857 0 0 0-.028 7.263v.319c.009 2.348.035 4.615.078 6.805l.001.142.005.14c.046 2.176.109 4.275.195 6.3l.005.155.007.13c.087 2.007.196 3.94.327 5.803l.01.172.011.136c.135 1.86.29 3.646.474 5.366l.012.131.013.1c.184 1.71.395 3.351.633 4.926l.019.15.019.107c.24 1.564.51 3.06.806 4.494l.024.133.021.088c.305 1.446.64 2.825 1.006 4.143l.02.078.015.048c.374 1.332.784 2.6 1.228 3.806l.015.049.012.028c.45 1.21.935 2.358 1.459 3.447l.015.035.01.019a32.247 32.247 0 0 0 1.696 3.079l.021.038.014.019a27.66 27.66 0 0 0 1.953 2.733l.017.023.01.012c.704.862 1.45 1.67 2.245 2.421l17.041 17.041H487.53a5.513 5.513 0 0 0-2.167.44 5.615 5.615 0 0 0-3.302 4.02 5.57 5.57 0 0 0-.113 1.122v41.67a5.513 5.513 0 0 0 .44 2.167 5.661 5.661 0 0 0 1.2 1.776l23.99 23.991-.684.987-1.183 1.743-1.17 1.752c-.387.586-.773 1.173-1.156 1.764l-1.14 1.775-1.129 1.787-1.112 1.796-1.099 1.809-.91 1.524-.174.295h-.001l-.159.27-.91 1.559c-.355.612-.708 1.225-1.056 1.84l-1.04 1.851-1.026 1.863-1.01 1.872-.997 1.881-.98 1.893-.965 1.904-.95 1.914-.935 1.923-.92 1.934c-.303.646-.606 1.295-.903 1.944-.3.65-.596 1.3-.889 1.954l-.873 1.964-.856 1.974-.84 1.983-30.048 7.112c-.299.071-.593.155-.878.253-.285.098-.562.21-.828.338a6.43 6.43 0 0 0-.757.423 5.302 5.302 0 0 0-.666.509 4.407 4.407 0 0 0-.553.599 3.869 3.869 0 0 0-.421.688 3.615 3.615 0 0 0-.268.78 4.006 4.006 0 0 0-.094.874 4.45 4.45 0 0 0 1.311 3.155l65.885 65.884-.005.034a195.038 195.038 0 0 0-1.561 24.747 196.592 196.592 0 0 0 .566 14.949 192.857 192.857 0 0 0 1.673 14.64 194.86 194.86 0 0 0 1.708 9.568 194.898 194.898 0 0 0 3.424 14.033 190.117 190.117 0 0 0 4.42 13.616 190.65 190.65 0 0 0 5.374 13.155 194.464 194.464 0 0 0 18.684 32.517 191.326 191.326 0 0 0 5.594 7.481 192.888 192.888 0 0 0 5.939 7.197 197.205 197.205 0 0 0 6.272 6.901 197.117 197.117 0 0 0 3.257 3.336l1135.88 1135.88 3.335 3.257 3.413 3.176 3.489 3.096 3.562 3.011 3.634 2.928 3.706 2.841 3.775 2.754 3.844 2.664 3.909 2.573 3.973 2.48 4.038 2.388 4.1 2.292 4.16 2.195 4.218 2.096 4.275 1.996 4.331 1.896 4.387 1.792 4.437 1.686 4.49 1.582 4.539 1.474 4.587 1.364 4.634 1.254 4.678 1.141 4.722 1.029 4.763.912 4.805.796 4.844.678 4.88.558 4.917.436 4.951.314 4.983.19 5.015.063 5.015-.064 4.983-.189 4.951-.314 4.917-.436 4.88-.558 4.844-.678 4.805-.796 4.763-.912 4.723-1.029 4.678-1.14 4.633-1.255 4.588-1.364 4.539-1.474 4.49-1.582 4.437-1.686 4.385-1.792 4.332-1.896 4.276-1.996 4.218-2.096 4.16-2.195 4.099-2.292 4.038-2.387 3.973-2.48 3.91-2.574 3.843-2.664 3.775-2.754 3.706-2.84 3.635-2.929 3.562-3.011 3.489-3.096 3.412-3.176 3.335-3.257 2.1-2.134 2.068-2.163 2.034-2.197 2.001-2.228 1.967-2.257 1.932-2.289 1.897-2.318 1.862-2.348 1.826-2.378 1.791-2.406 1.754-2.434 1.717-2.463 1.68-2.49 1.643-2.516 1.604-2.543 1.566-2.57 1.527-2.596 1.487-2.622 1.448-2.647 1.408-2.67 1.368-2.697 1.326-2.72 1.285-2.743 1.244-2.766 1.202-2.789 1.159-2.812 1.116-2.832 1.072-2.855 1.029-2.876.985-2.896.941-2.917.896-2.936 100.142-6.377.872-.06.869-.063.863-.07.857-.076.853-.082.847-.087.843-.094.837-.099.832-.104.826-.11.822-.114.816-.12.811-.127.806-.131.8-.137.797-.142 19.326-.263 1.99 1.989 1.043.828 1.139.701 1.224.564 1.296.415 1.361.258 1.414.088 1.776-.139 1.69-.406 1.577-.65 1.447-.872 1.294-1.073 1.12-1.253.924-1.412.706-1.548.95-.072.942-.075.934-.075.926-.078.918-.08.908-.08.9-.083.887-.084.88-.087.868-.087.858-.09.847-.09.835-.093.823-.094.811-.096.799-.097 1.173.665 1.191.64 1.212.614 1.231.59 1.25.563 1.267.538 1.286.51 1.304.483 2.899.954 2.912.798 2.921.643 2.924.493 2.924.341 2.918.195 2.908.05 2.893-.094 2.872-.234 2.848-.372 2.818-.509 2.784-.642 2.744-.774 2.702-.903 2.652-1.031 2.6-1.156 2.542-1.278 2.479-1.398 2.41-1.517 2.34-1.632 2.26-1.745 2.181-1.858 2.093-1.967 2.002-2.073 1.906-2.178 1.805-2.28 1.7-2.38 1.588-2.478 1.473-2.574 1.355-2.667 1.228-2.758 1.1-2.846.061-.174.062-.173.06-.174.06-.175.06-.173.06-.174.057-.175.058-.173 4.712-3.356 116.245 116.247 3.335 3.257 3.412 3.176 3.49 3.096 3.561 3.012 3.635 2.927 3.706 2.841 3.775 2.754 3.843 2.664 3.91 2.573 3.973 2.481 4.038 2.387 4.1 2.291 4.16 2.196 4.217 2.095 4.276 1.998 4.332 1.894 4.385 1.792 4.438 1.688 4.49 1.581 4.538 1.473 4.588 1.365 4.633 1.254 4.678 1.142 4.723 1.027 4.763.913 4.805.796 4.843.678 4.88.559 4.918.436 4.95.314 4.984.189 5.015.064 5.015-.064 4.983-.19 4.951-.313 4.917-.436 4.88-.559 4.844-.678 4.805-.796 4.763-.913 4.722-1.027 4.678-1.142 4.634-1.254 4.587-1.365 4.54-1.473 4.489-1.581 4.437-1.688 4.387-1.792 4.33-1.894 4.276-1.998 4.218-2.095 4.16-2.196 4.1-2.29 4.038-2.388 3.973-2.481 3.91-2.573 3.843-2.664 3.775-2.754 3.706-2.841 3.634-2.927 3.562-3.012 3.49-3.096 3.412-3.176 3.335-3.257 3.257-3.335 3.176-3.414 3.096-3.488 3.012-3.562 2.928-3.634 2.84-3.706 2.755-3.775 2.663-3.844 2.574-3.909 2.48-3.974 2.387-4.037 2.293-4.1 2.194-4.16 2.097-4.219 1.996-4.275 1.895-4.331 1.792-4.386 1.687-4.438 1.581-4.49 1.474-4.538 1.364-4.587 1.255-4.634 1.14-4.678 1.03-4.722.911-4.764.796-4.804.678-4.844.559-4.88.436-4.917.314-4.951.189-4.983.064-5.015-.064-5.015-.19-4.983-.313-4.951-.436-4.917-.559-4.88-.678-4.844-.796-4.804-.912-4.764-1.028-4.723-1.141-4.678-1.255-4.633-1.364-4.588-1.474-4.538-1.581-4.489-1.687-4.439-1.792-4.385-1.895-4.331-1.996-4.276-2.097-4.219-2.194-4.16-2.293-4.099-2.387-4.037-2.48-3.974-2.574-3.91-2.663-3.843-2.755-3.775-2.84-3.706-2.928-3.635-3.012-3.562-3.096-3.488-3.176-3.413-3.257-3.335L2488.6 1998.36l.013-1.209.026-2.035.03-2.005.036-1.968.04-1.92.043-1.862.047-1.797.05-1.724.055-1.64.057-1.547.06-1.447.063-1.337.066-1.22.067-1.09.111-2.183.036-2.124-.04-2.063-.11-2.005-.182-1.945-.254-1.887-.321-1.83-.39-1.771-.455-1.715-.52-1.66-.585-1.603-.647-1.548-.708-1.494-.768-1.439-.826-1.386-.883-1.334-.96-1.31-1.004-1.245-1.047-1.175-1.087-1.109-.283-.26 1.37 1.37-51.845-51.846-1.238-14.206-.2-1.039-.39-.919-.549-.769-1135.88-1135.88a3.689 3.689 0 0 0-.676-.59 3.165 3.165 0 0 0-.772-.38h-.002a2.83 2.83 0 0 0-.832-.141l-.004-.001h-.005a2.821 2.821 0 0 0-.863.124h-.005l-.005.003c-.29.089-.583.228-.87.42l-17.503 11.728-77.538-77.538-.338-.338a56.06 56.06 0 0 0-2.319-2.176l-.8-.694a48.407 48.407 0 0 0-2.487-1.976 43.803 43.803 0 0 0-2.616-1.792 39.127 39.127 0 0 0-2.752-1.578 35.355 35.355 0 0 0-2.889-1.334 32.49 32.49 0 0 0-5.568-1.699 34.227 34.227 0 0 0-2.834-.476 36.336 36.336 0 0 0-2.86-.248 38.788 38.788 0 0 0-1.436-.042 42.075 42.075 0 0 0-4.323.169 49.7 49.7 0 0 0-4.323.573 60.247 60.247 0 0 0-5.717 1.307 68.59 68.59 0 0 0-2.822.848 80.822 80.822 0 0 0-4.163 1.473 90.905 90.905 0 0 0-2.718 1.091c-.449.188-.895.38-1.34.573z" style="fill:#00796b"/></g></g><path class="fil2" d="M1024-.001c565.541 0 1024 458.46 1024 1024s-458.461 1024-1024 1024c-565.541 0-1024-458.461-1024-1024 0-565.541 458.461-1024 1024-1024z"/><g id="_449593488"><path id="_459249080" class="fil3" d="m1206.82 791.382 78.743-52.761c2.311-1.55 4.92.386 5.173 3.292l3.538 40.604c.254 2.906-1.574 6.173-4.132 7.266l-15.707 6.708 3.056 30.977c.157 1.594-.86 3.385-2.265 3.984l-44.808 19.139c-1.404.6-2.68-.212-2.838-1.805l-3.056-30.977-16.101 6.877c-2.557 1.09-5.103-.376-5.173-3.293l-.561-22.744c-.073-2.918 1.82-5.717 4.131-7.267z"/><path id="_459245408" class="fil4" d="M523.891 990.289c9.927 7.977 11.767 37.565 16.091 49.254l-22.788 2.977-3.535-20.196 10.232-32.035z"/><path id="_459260360" d="M487.531 977.907h34.602c3.07 0 6.58 2.679 5.58 5.582l-14.345 41.67c-1 2.904-2.513 5.582-5.581 5.582H487.53c-3.07 0-5.582-2.51-5.582-5.582v-41.67c0-3.071 2.511-5.582 5.582-5.582z" style="fill:#d50000"/><path id="_459259232" d="m713.437 1137.56 282.456 3.278c97.338 1.129 91.683 106.388-1.488 112.318l-280.968 17.89c-38.625 2.458-70.39-30.035-70.39-66.743 0-36.71 31.68-67.192 70.39-66.743z" style="fill:#a3a3a3"/><circle id="_459259184" class="fil7" cx="707.935" cy="1204.24" r="65.674"/><path id="_459262112" class="fil8" d="M711.507 1052.2v306.39h-7.144V1052.2z"/><path id="_459276056" class="fil8" d="m684.849 1053.91 53.204 301.74-7.032 1.23-53.204-301.74z"/><path id="_459265448" class="fil8" d="m658.888 1060.23 104.792 287.91-6.698 2.43-104.792-287.91z"/><path id="_459265256" class="fil8" d="m634.42 1070.94 153.196 265.34-6.167 3.58-153.197-265.35z"/><path id="_459253904" class="fil8" d="m612.198 1085.75 196.944 234.71-5.469 4.58-196.945-234.71z"/><path id="_459248624" class="fil8" d="m592.868 1104.19 234.711 196.94-4.577 5.47-234.71-196.94z"/><path id="_459272336" class="fil8" d="m577.035 1125.71 265.343 153.2-3.543 6.17-265.344-153.2z"/><path id="_459248696" class="fil8" d="m565.191 1149.65 287.914 104.79-2.428 6.7-287.914-104.79z"/><path id="_459259808" class="fil8" d="m557.679 1175.28 301.738 53.2-1.229 7.03-301.737-53.2z"/><path id="_459272672" class="fil8" d="M554.737 1201.82h306.392v7.15H554.737z"/><path id="_459271112" class="fil8" d="m556.451 1228.48 301.736-53.2 1.229 7.03-301.737 53.2z"/><path id="_459276368" class="fil8" d="m562.761 1254.44 287.914-104.79 2.429 6.7-287.914 104.79z"/><path id="_459265016" class="fil8" d="m573.489 1278.91 265.344-153.2 3.543 6.17-265.343 153.2z"/><path id="_459255872" class="fil8" d="m588.29 1301.13 234.709-196.94 4.576 5.47-234.71 196.94z"/><path id="_459264248" class="fil8" d="m606.724 1320.46 196.946-234.71 5.468 4.58-196.944 234.71z"/><path id="_459275840" class="fil8" d="m628.249 1336.28 153.197-265.35 6.167 3.58-153.196 265.34z"/><path id="_459257888" class="fil8" d="m652.186 1348.13 104.793-287.91 6.696 2.43-104.792 287.91z"/><path id="_459259112" class="fil8" d="m677.814 1355.65 53.204-301.74 7.031 1.23-53.204 301.74z"/><path id="_459247280" class="fil9" d="M707.934 1009.94c53.654 0 102.232 21.749 137.394 56.913 35.164 35.162 56.913 83.74 56.913 137.394 0 53.652-21.75 102.23-56.913 137.393s-83.74 56.912-137.394 56.912c-53.654 0-102.232-21.749-137.394-56.912-35.163-35.163-56.911-83.74-56.911-137.393 0-53.654 21.748-102.232 56.911-137.394 35.163-35.164 83.74-56.913 137.394-56.913zm105.07 89.237c-26.888-26.886-64.036-43.516-105.07-43.516-41.035 0-78.182 16.63-105.069 43.516-26.888 26.888-43.518 64.035-43.518 105.07 0 41.034 16.63 78.18 43.518 105.07 26.887 26.886 64.034 43.516 105.069 43.516 41.034 0 78.182-16.63 105.07-43.517 26.887-26.888 43.517-64.035 43.517-105.069 0-41.035-16.63-78.182-43.517-105.07z"/><path id="_459273848" class="fil10" d="M707.934 1022.75c100.236 0 181.491 81.256 181.491 181.492 0 100.234-81.255 181.491-181.491 181.491-100.236 0-181.491-81.256-181.491-181.491 0-100.236 81.255-181.492 181.491-181.492zm105.07 76.422c-26.888-26.887-64.036-43.517-105.07-43.517-41.035 0-78.182 16.63-105.069 43.517-26.888 26.888-43.518 64.035-43.518 105.07 0 41.034 16.63 78.18 43.518 105.07 26.887 26.886 64.034 43.516 105.069 43.516 41.034 0 78.182-16.63 105.07-43.517 26.887-26.888 43.517-64.035 43.517-105.069 0-41.035-16.63-78.182-43.517-105.07z"/><path id="_459263864" class="fil8" d="M707.934 1046.47c87.138 0 157.776 70.638 157.776 157.776 0 87.137-70.638 157.775-157.776 157.775-87.137 0-157.775-70.638-157.775-157.775 0-87.138 70.638-157.776 157.775-157.776zm103.965 53.811c-26.604-26.605-63.361-43.06-103.965-43.06-40.604 0-77.361 16.456-103.965 43.06-26.604 26.604-43.06 63.362-43.06 103.965s16.456 77.36 43.06 103.964c26.604 26.604 63.361 43.06 103.965 43.06 40.604 0 77.361-16.454 103.965-43.06 26.605-26.604 43.06-63.361 43.06-103.964 0-40.604-16.454-77.361-43.06-103.965z"/><path id="_459272216" d="M708.21 1197.66c3.425 0 6.22 2.803 6.227 6.226l.066 45.218c.005 3.423-1.083 6.226-4.506 6.226h-.001c-3.422 0-3.723-3.485-4.028-6.896l-3.985-44.548c-.303-3.41 2.802-6.226 6.227-6.226z" style="fill:gray"/><path id="_459250232" class="fil12" d="M1269.73 943.898c-2.088 1.136-4.76 2.231-8.32 3.687-4.363 1.786-10.705 4.382-18.104 8.281-.543-1.542-.967-1.588-1.353-1.89-52.942-41.448-147.852 13.92-173.21 96.337-25.358 82.416-14.343 116.49-19.48 157-20.798 5.512-44.993.317-62.424-2.402-13.991-2.183-26.952-5.503-46.704-11.653V1193.012l.002-.022v-.181l.006-.769V1191.927c0-3.386-.082-6.76-.238-10.124l-.007-.17c-.035-.778-.078-1.552-.122-2.327l-.017-.314c-.044-.73-.092-1.457-.142-2.184l-.032-.48a218.06 218.06 0 0 0-.167-2.17l-.033-.413a260.79 260.79 0 0 0-.193-2.174l-.042-.455c-.068-.691-.139-1.382-.21-2.072l-.059-.56c-.075-.698-.153-1.394-.236-2.091l-.055-.479c-.087-.708-.175-1.417-.266-2.126l-.06-.461a228.61 228.61 0 0 0-.277-2.012c-14.964-105.298-105.16-186.554-215.012-186.554-43.487 0-85.37 12.9-120.845 36.702l-6.47-.624c-31.88-3.074-90.733-66.264-97.852-100.013l-.537-4.643 13.112-152.66.09-1.072c.007-.146-6.387 12.899 28.657-1.508 13.44-5.529 21.669-34.454 65.716-33.003 34.184 1.127 71.524 2.358 98.185.969 25.342-1.317 24.222-14.052 36.634-1.595 11.734 11.778 17.61 5.18 20.308 26.552 4.36 34.53-25.594 57.24-24.122 85.556.47 9.033 58.589 45.17 59.096 52.525.981 14.222 11.96-10.945 21.294-5.438 7.122 4.201 13.29 6.118 13.33 6.131.288.093 100.677 32.431 122.389 24.882 2.96-1.03 7.389-12.349 12.24-24.759 10.477-26.79 26.318-37.288 61.533-47.79 24.41-7.281 49.43-7.5 72.515-7.084 22.505.404 54.575 24.27 77.183 28.922 33.315.864 52.639-21.111 52.66-21.212l3.041-3.662 38.596 111.962z"/><path id="_459245264" d="M1077.39 1201.06c-3.304 26.063-4.887 43.518-4.887 43.518l.58.785c-18.296 4.589-74.468 6.248-93.974 3.443-29.728-4.27-57.272-12.984-84.7-21.66-53.002-16.767-105.533-33.377-162.68-9.673-8.151 3.381-14.098 9.092-22.954 9.092-12.713 0-23.02-10.308-23.02-23.021 0-6.714 2.875-12.756 7.46-16.963 2.534-2.323 5.729-4.283 8.802-5.798 77.075-38.04 141.305-17.724 206.145 2.787 10.648 3.369 21.314 6.742 31.97 9.803v-.046l.001-.021v-.05c19.753 6.15 32.713 9.47 46.705 11.653 17.43 2.719 69.753 1.664 90.552-3.85z" style="fill:#666;fill-rule:nonzero"/><circle id="_459250016" class="fil14" cx="707.935" cy="1204.24" r="10.745"/><circle id="_459248192" class="fil4" cx="707.935" cy="1204.24" r="5.132"/><path id="_459257696" class="fil12" d="M1235.33 843.397c3.208-4.565 7.395-9.197 12.237-13.671 12.618-11.655 29.7-22.24 45.572-27.779 9.513-3.317 18.923-5.02 27.287-4.406 10.893.8 20.135 5.156 26.407 14.152 4.862 6.97 7.337 16.176 6.542 27.987-.367 5.46-.642 16.75-.69 27.787-.04 9.457.082 19.01.452 24.933v.062c.277 4.434-.385 8.642-1.846 12.538-2.344 6.243-6.611 11.267-12.25 14.799-4.947 3.097-10.867 4.966-17.28 5.368-6.166.385-12.97-.595-19.888-3.191l-37.763-5.8-28.78-72.78z"/><path id="_459259976" class="fil15" d="m1326.25 798.349.563.12c8.118 1.82 15.016 6.045 20.021 13.224 4.862 6.97 7.337 16.176 6.542 27.987-.367 5.46-.642 16.75-.69 27.787-.04 9.457.082 19.011.452 24.933v.063c.277 4.434-.385 8.642-1.846 12.537-2.344 6.243-6.61 11.268-12.25 14.8-3.666 2.293-7.862 3.914-12.399 4.763l-.059.012-.334-126.226z"/><circle id="_459250352" class="fil7" cx="1405.69" cy="1190.24" r="65.674"/><path id="_459249848" class="fil8" d="M1409.27 1038.2v306.39h-7.15V1038.2z"/><path id="_459245000" class="fil8" d="m1382.61 1039.91 53.2 301.74-7.03 1.23-53.2-301.74z"/><path id="_459268112" class="fil8" d="m1356.65 1046.22 104.79 287.92-6.7 2.43-104.79-287.92z"/><path id="_459250136" class="fil8" d="m1332.18 1056.94 153.2 265.34-6.17 3.57-153.2-265.34z"/><path id="_459269672" class="fil8" d="m1309.96 1071.75 196.94 234.71-5.47 4.58-196.94-234.71z"/><path id="_459255632" class="fil8" d="m1290.63 1090.19 234.71 196.94-4.58 5.47-234.71-196.94z"/><path id="_459263120" class="fil8" d="m1274.79 1111.71 265.35 153.2-3.55 6.16-265.34-153.19z"/><path id="_459253472" class="fil8" d="m1262.95 1135.65 287.91 104.79-2.42 6.7-287.92-104.79z"/><path id="_459268664" class="fil8" d="m1255.44 1161.27 301.74 53.21-1.23 7.03-301.74-53.2z"/><path id="_459268136" class="fil8" d="M1252.5 1187.82h306.39v7.14H1252.5z"/><path id="_459255032" class="fil8" d="m1254.21 1214.48 301.74-53.21 1.22 7.03-301.73 53.21z"/><path id="_459250736" class="fil8" d="m1260.52 1240.44 287.91-104.79 2.43 6.69-287.91 104.8z"/><path id="_459259088" class="fil8" d="m1271.25 1264.9 265.34-153.19 3.55 6.17-265.35 153.19z"/><path id="_459258896" class="fil8" d="m1286.05 1287.13 234.71-196.95 4.57 5.47-234.71 196.95z"/><path id="_459259520" class="fil8" d="m1304.48 1306.46 196.95-234.71 5.47 4.57-196.95 234.71z"/><path id="_459276776" class="fil8" d="m1326.01 1322.28 153.2-265.35 6.16 3.57-153.19 265.35z"/><path id="_459268256" class="fil8" d="m1349.95 1334.13 104.79-287.91 6.7 2.43-104.8 287.91z"/><path id="_459271136" class="fil8" d="m1375.57 1341.64 53.21-301.73 7.03 1.23-53.21 301.73z"/><path id="_459267944" class="fil9" d="M1405.69 995.935c53.654 0 102.232 21.749 137.394 56.911 35.164 35.164 56.913 83.74 56.913 137.394 0 53.654-21.75 102.23-56.913 137.394-35.163 35.163-83.74 56.913-137.394 56.913-53.654 0-102.232-21.75-137.394-56.913-35.163-35.163-56.912-83.74-56.912-137.394 0-53.654 21.75-102.23 56.912-137.394 35.163-35.162 83.74-56.911 137.394-56.911zm105.07 89.237c-26.888-26.888-64.035-43.518-105.07-43.518-41.034 0-78.182 16.631-105.069 43.518s-43.517 64.035-43.517 105.07c0 41.033 16.63 78.181 43.517 105.068 26.887 26.887 64.035 43.518 105.069 43.518 41.035 0 78.182-16.63 105.07-43.518 26.887-26.887 43.517-64.035 43.517-105.069 0-41.034-16.63-78.182-43.517-105.069z"/><path id="_459265040" class="fil10" d="M1405.69 1008.75c100.236 0 181.492 81.255 181.492 181.491 0 100.236-81.256 181.491-181.492 181.491-100.234 0-181.491-81.255-181.491-181.491 0-100.236 81.256-181.491 181.491-181.491zm105.07 76.422c-26.888-26.888-64.035-43.518-105.07-43.518-41.034 0-78.182 16.631-105.069 43.518s-43.517 64.035-43.517 105.07c0 41.033 16.63 78.181 43.517 105.068 26.887 26.887 64.035 43.518 105.069 43.518 41.035 0 78.182-16.63 105.07-43.518 26.887-26.887 43.517-64.035 43.517-105.069 0-41.034-16.63-78.182-43.517-105.069z"/><path id="_459247160" class="fil8" d="M1405.69 1032.46c87.138 0 157.776 70.638 157.776 157.776s-70.638 157.776-157.776 157.776c-87.137 0-157.775-70.638-157.775-157.776s70.638-157.776 157.775-157.776zm103.965 53.811c-26.604-26.604-63.361-43.06-103.965-43.06-40.604 0-77.361 16.456-103.965 43.06-26.604 26.604-43.06 63.363-43.06 103.965 0 40.603 16.456 77.361 43.06 103.965 26.604 26.604 63.362 43.06 103.965 43.06 40.604 0 77.361-16.456 103.965-43.06 26.605-26.604 43.06-63.363 43.06-103.965 0-40.603-16.454-77.361-43.06-103.965z"/><circle id="_459268400" class="fil14" cx="1405.69" cy="1190.24" r="10.745"/><circle id="_459276224" class="fil4" cx="1405.69" cy="1190.24" r="5.132"/><path id="_459273680" class="fil15" d="M477.897 1110.7c17.737-49.188 49.828-90.253 90.541-119.119 41.37-29.334 91.573-46.126 144.612-46.126 65.889 0 126.155 25.622 171.026 67.704 44.822 42.036 74.226 100.53 78.451 166.327l-35.578 2.232c-3.623-56.397-28.842-106.55-67.289-142.606-38.399-36.012-90.055-57.938-146.61-57.938-45.57 0-88.6 14.355-123.963 39.429-31.568 22.383-57.088 53.275-72.927 90.098h-38.263z"/><path id="_459267512" class="fil2" d="M1484.37 996.447a214.05 214.05 0 0 0-72.125-12.517c-87.355 0-165.944 53.083-198.562 134.12" style="stroke:#e6e6e6;stroke-width:40.0004"/><path id="_459265328" d="m914.31 975.511 173.3-11.24c34.874-2.261 37.365 31.744 22.706 47.651-47.677 51.73-65.208 57.118-97.525 128.725-5.834 12.924-16.173 19.508-35.444 20.952l-.876.066c-26.984 2.02-39.572-12.66-46.328-29.355l-44.1-108.982c-7.17-17.718-20.382-44.661 28.267-47.817z" style="fill:#b71c1c"/><path id="_459257288" class="fil17" d="m452.464 1105.96 31.44-7.442 36.835-.372c2.457-.025-4.652 9.824-4.652 12.277v.002a4.476 4.476 0 0 1-4.464 4.464h-59.159a4.476 4.476 0 0 1-4.465-4.464v-.002c0-2.455 2.076-3.898 4.465-4.463z"/><path id="_459249608" class="fil7" d="m1390.12 1193.5-1.969 2.218a8.33 8.33 0 0 0-2.114 5.569 8.394 8.394 0 0 0 8.396 8.396 8.394 8.394 0 0 0 8.397-8.396 8.394 8.394 0 0 0-9.813-8.277l-2.897.49z"/><path id="_459264344" class="fil18" d="m1224.72 855.99.064.187c2.366 6.906 4.796 13.769 7.27 20.585 14.23 39.191 30.45 77.789 47.887 115.656 17.702 38.443 36.779 76.36 57.218 113.424 14.772 26.785 30.35 53.414 47.069 79.127l9.037-5.24a15.48 15.48 0 0 0-3.727 10.381c.156 8.58 7.24 15.411 15.821 15.254 8.58-.156 15.409-7.239 15.253-15.82-.157-8.58-7.24-15.41-15.82-15.254-.89.017-1.758.109-2.604.267l9.209-5.338c-16.522-25.173-32.01-51.114-46.7-77.353-19.162-34.227-37.063-69.233-53.665-104.771-17.52-37.5-33.702-75.783-47.822-114.697a1106.825 1106.825 0 0 1-9.53-27.323l-.116-.352a28651.796 28651.796 0 0 0-28.844 11.267z"/><path id="_449602368" class="fil7" d="m1060.55 724.894 12.057 11.952c8.867-8.717 17.906-17.263 27.249-25.47 9.015-7.919 18.35-15.635 28.388-22.235 12.926-8.5 30.855-17.476 45.678-8.014a25.722 25.722 0 0 1 4.292 3.44c8.988 8.917 14.13 23.88 17.656 35.848 4.8 16.297 8.217 32.961 11.785 49.558 6.07 28.232 14.359 56.054 23.727 83.414l15.522-6.062c-8.87-26.574-16.641-53.553-22.524-80.914-4.139-19.247-8.077-38.737-14.307-57.438-4.236-12.71-10.241-26.934-19.884-36.501-4.012-3.98-8.6-7.41-13.863-9.55-14.62-5.944-31.275-.13-44.554 6.626-12.774 6.5-24.716 15.02-35.904 23.938-12.32 9.821-24.016 20.427-35.318 31.408z"/><path id="_449589792" class="fil17" d="m1050.98 730.165 41.478-35.765 13.137 15.235-41.479 35.765a5.623 5.623 0 0 1-1.793 5.531c-2.337 2.015-5.895 1.752-7.91-.584l-9.753-11.31c-2.015-2.338-1.752-5.896.586-7.91a5.623 5.623 0 0 1 5.734-.962z"/><rect id="_449591376" class="fil3" transform="matrix(.09312 -.0803 .88675 1.0284 1084.68 690.921)" width="62.891" height="26.172" rx="3.867" ry="3.867"/><path id="_449614080" class="fil19" d="M1261.68 846.389c1.02 2.722 1.874 5.52 2.833 8.291 14.835 42.838 59.777 143.801 80.366 187.695l-38.53 23.192c-21.056-44.698-66.771-146.719-82.429-190.329-8.82-24.562-5.41-13.755 28.195-33.981 3.907-2.474 7.011-1.693 9.565 5.132z"/><circle id="_449603280" class="fil4" cx="1405.31" cy="1189.88" r="6.1"/><path id="_449613480" d="M945.248 894.402c3.863-.318 9.724 3.361 8.172 6.957-8.455 19.578-14.944 39.095-16.573 57.679-.343 3.908-3.18 7.136-7.056 7.143l-125.245.233c-3.875.006-6.939-3.217-7.056-7.143l-2.562-84.967c-.325-10.783 7.671-6.993 17.279-2.076 46.87 23.986 80.099 26.523 133.042 22.174z" style="fill:#381913"/><path id="_449590008" d="m791.73 809.75 5.02 111.819c.832 18.563-11.952 33.726-28.03 33.767-316.334.8-296.678 81.92-290.433-145.585H791.73z" style="fill:#f89303;fill-rule:nonzero"/><path id="_449600304" d="m479.409 731.266.09-1.238c.007-.17 1.923-59.268 36.967-75.91 13.44-6.384 52.64-4.893 96.688-3.215 34.183 1.301 71.523 2.723 98.185 1.12 25.342-1.522 42.35 4.71 54.763 19.099 11.735 13.604 16.854 32.158 19.553 56.843 2.594 23.735 4.38 49.675 5.712 73.683l.361 8.04.003.062H478.287l.023-.919c.617-22.687 1.099-48.386 1.099-77.565z" style="fill:#ffa301;fill-rule:nonzero"/><rect id="_449620344" x="470.929" y="803.835" width="328.159" height="12.248" rx="6.124" ry="6.124" style="fill:#eb8b05"/><path id="_449591832" class="fil24" d="M1076.82 998.528c-15.81 10.504-28.159 19.29-38.815 21.546-31.178 6.602-46.856-13.419-112.37 50.725 25.41-29.474 57.569-63.043 88.522-64.59 20.762-1.037 32.317 5.667 62.663-7.681z"/><path id="_449614680" class="fil24" d="M919.684 1095.68c22.41-21.892 50.323-46.825 73.499-47.974 4.567-.227 14.647-.68 24.17-.755-36.189 7.653-58.87 15.967-97.669 48.729z"/><rect id="_449595816" class="fil14" x="1096.21" y="796.751" width="19.066" height="7.177" rx="1.564" ry="1.564"/><rect id="_449619432" class="fil7" x="1087.56" y="798.673" width="36.364" height="13.688" rx="2.983" ry="2.983"/><path id="_449610600" class="fil19" d="M959.297 887.175c11.352-28.28 24.905-59.303 63.063-70.39 26.45-7.686 51.607-10.454 76.621-10.016 24.388.426 48.135 3.91 72.632 8.82a68.2 68.2 0 0 0 1.83.022c21.318 4.29 47.435 8.099 45.392 22.376-10.206 71.323-74.236 91.366-127.5 91.91-45.219.463-75.29 5.26-121.153 31.997-17.61 10.266-33.923 11.624-32.961.893 2.314-25.823 15.941-54.868 21.713-74.603.1-.34.244-.671.363-1.009z"/><path id="_449606184" class="fil24" d="M1164.4 836.408c-16.198 10.855-28.848 19.938-39.765 22.27-31.943 6.824-48.005-13.87-115.124 52.429 26.032-30.463 58.978-65.16 90.69-66.76 21.272-1.072 33.11 5.857 64.2-7.939z"/><path id="_449598144" class="fil24" d="M1011.65 927.597c22.96-22.628 51.556-48.398 75.301-49.586 4.679-.234 15.006-.702 24.762-.78-37.075 7.91-60.314 16.504-100.063 50.366z"/><path id="_449601600" class="fil7" d="M954.037 1167.49c32.193 2.118 63.842-1.232 95.293-6.557 7.595-1.288 14.126 6.035 14.272 13.738l1.044 54.775c.145 7.703-6.044 14.623-13.74 14.272-31.764-1.449-63.529-1.957-95.292 1.815-7.651.907-14.113-6.036-14.273-13.74l-1.043-50.03c-.16-7.705 6.05-14.779 13.739-14.273z"/><path id="_449597424" class="fil7" d="m1208.51 1164.55-11.401-16.009a2.425 2.425 0 0 0 1.155-3.68l-3.305-4.64 3.677-2.618-6.11-8.58-3.677 2.62-3.304-4.64a2.425 2.425 0 0 0-3.372-.567 2.401 2.401 0 0 0-.484.456l-11.4-16.009c-1.724-2.419-5.113-2.988-7.531-1.266l-71.274 50.762c-2.419 1.722-2.988 5.111-1.265 7.53l38.222 53.667c1.723 2.419 5.11 2.988 7.53 1.265l71.273-50.762c2.419-1.723 2.99-5.11 1.266-7.53z"/><rect id="_449620896" class="fil18" transform="matrix(-.25304 -.35528 -.01792 .01277 1207.35 1177.64)" width="196.849" height="252.336" rx="2.777" ry="2.777"/><rect id="_449613264" class="fil18" transform="matrix(-.25304 -.35528 -.01792 .01277 1198.88 1183.67)" width="196.849" height="252.336" rx="2.777" ry="2.777"/><rect id="_449608032" class="fil18" transform="matrix(-.25304 -.35528 -.01792 .01277 1190.42 1189.7)" width="196.849" height="252.336" rx="2.777" ry="2.777"/><rect id="_449612136" class="fil18" transform="matrix(-.25304 -.35528 -.01792 .01277 1181.95 1195.73)" width="196.849" height="252.336" rx="2.777" ry="2.777"/><path id="_449604864" class="fil7" d="m1052.55 1084.08 19.64.732a2.424 2.424 0 0 1 2.44-2.986l5.692.212.168-4.51 10.526.393-.169 4.51 5.692.213a2.425 2.425 0 0 1 2.327 2.506v.001a2.39 2.39 0 0 1-.116.653l19.64.734c2.968.11 5.305 2.629 5.194 5.597l-3.265 87.44c-.11 2.969-2.629 5.306-5.597 5.195l-65.84-2.458c-2.967-.11-5.305-2.629-5.194-5.597l3.265-87.442c.11-2.967 2.629-5.304 5.597-5.193z"/><rect id="_449617032" class="fil18" transform="matrix(.43587 .01627 -.00082 .02199 1042.25 1092.23)" width="196.849" height="252.336" rx="2.777" ry="2.777"/><rect id="_449607264" class="fil18" transform="matrix(.43587 .01627 -.00082 .02199 1041.87 1102.62)" width="196.849" height="252.336" rx="2.777" ry="2.777"/><rect id="_449616192" class="fil18" transform="matrix(.43587 .01627 -.00082 .02199 1041.48 1113.01)" width="196.849" height="252.336" rx="2.777" ry="2.777"/><rect id="_449610624" class="fil18" transform="matrix(.43587 .01627 -.00082 .02199 1041.09 1123.39)" width="196.849" height="252.336" rx="2.777" ry="2.777"/><circle id="_449609136" class="fil18" transform="matrix(.4837 .1729 -.1729 .4837 1091.04 1196.18)" r="115.416"/><circle id="_449613768" class="fil24" transform="rotate(19.67 -2904.5 3744.949) scale(.408)" r="115.416"/><path id="_449612928" class="fil14" d="M1043.38 1244.4v.001c.286 3.412-2.262 6.636-5.683 6.725l-325.786 4.466c-7.424.103-8.276-9.036.401-9.364l324.342-7.51c3.424-.08 6.44 2.27 6.726 5.682z"/><circle id="_449595672" class="fil4" cx="1036.55" cy="1244.9" r="11.218"/><circle id="_449620800" class="fil14" cx="1036.55" cy="1244.9" r="7.205"/><path id="_449615784" d="M1037.82 1239.48a4.989 4.989 0 0 0-5.235 4.727 4.989 4.989 0 0 0 4.727 5.234c17.3.936 32.022-5.676 61.686-19.001l2.576-1.156a4.986 4.986 0 0 0 2.519-6.583 4.986 4.986 0 0 0-6.582-2.52l-2.576 1.157c-28.192 12.664-42.185 18.949-57.115 18.142z" style="fill:gray;fill-rule:nonzero"/><rect id="_449606256" class="fil17" x="1070.27" y="1217.74" width="46.63" height="11.088" rx="5.544" ry="5.544"/></g></g></svg>